<svg width="425" height="157" viewBox="0 0 425 157" fill="none" xmlns="http://www.w3.org/2000/svg">
<path d="M424.356 125H0V126.248H424.356V125Z" fill="#3F3D56" fill-opacity="0.9"/>
<path d="M309.558 0H312.44C313.419 0.269352 314.515 0.59204 315.067 1.5201C316.43 3.60558 316.27 6.28309 315.566 8.57125C314.851 11.2141 313.182 13.4622 312.395 16.0784C311.376 19.052 311.238 22.2202 311.216 25.3377C310.662 25.3137 310.112 25.2257 309.558 25.1964C309.646 20.5881 309.998 15.7744 312.2 11.6275C313.31 9.23263 314.542 6.62978 314.03 3.92293C313.75 2.72819 313.286 1.15741 311.88 0.925396C310.696 0.805388 309.248 0.744051 308.331 1.63744C307.531 2.85086 308.008 4.3523 308.344 5.63772C307.755 5.67505 307.165 5.71506 306.576 5.75506C306.157 4.48297 305.653 3.02687 306.333 1.75212C306.947 0.562705 308.328 0.160011 309.558 0Z" fill="#BFBFBF"/>
<path d="M308.646 28.7938C309.688 27.8898 311.483 27.6231 312.464 28.7538C312.75 29.5592 311.848 29.8525 311.235 29.9326C310.264 30.1166 308.864 29.9806 308.646 28.7938Z" fill="#BFBFBF"/>
<path d="M352.786 74.3594C350.055 70.0438 345.269 65.9044 342.686 64.2604C340.103 62.6163 335.757 61.3242 334.699 60.0326C333.643 58.741 330.943 54.279 329.299 53.1045C327.654 51.9301 323.897 50.6379 322.018 48.5243C320.139 46.4101 319.551 43.3568 318.494 42.3C317.437 41.2432 314.971 37.9546 313.914 37.3679C312.857 36.7807 310.743 37.9551 310.039 38.3076C309.334 38.6595 307.103 37.9551 304.402 38.1899C301.702 38.4242 300.292 39.1296 298.06 38.4242C295.829 37.7198 292.894 38.1899 290.897 37.8375C288.9 37.485 287.023 36.8972 286.2 37.0155C285.377 37.1331 287.257 38.5418 288.783 39.834C290.309 41.1261 291.133 43.1215 291.837 44.7661C292.542 46.4101 293.247 48.289 292.894 51.1075C292.542 53.926 292.718 55.0707 293.687 56.7445C294.656 58.4173 296.241 59.3868 296.329 60.2674C296.418 61.1485 296.241 63.4378 296.945 64.1427C297.65 64.8471 298.355 65.0227 299.001 65.0818C299.646 65.1409 299.822 65.963 300.879 66.2563C301.935 66.5502 303.582 66.5502 303.582 66.5502C303.582 66.5502 303.288 67.607 303.288 69.3687C303.288 71.1299 304.344 75.8863 306.281 79.4092C308.219 82.9321 309.334 86.5141 309.334 88.2758C309.334 90.0369 312.037 94.1476 312.389 95.0282C312.742 95.9093 311.273 98.9035 310.862 104.128C310.45 109.354 313.327 117.986 313.034 118.749C312.742 119.512 311.331 119.395 311.448 121.744C311.566 124.092 312.271 125.853 313.975 126.03C315.676 126.206 315.266 126.089 317.437 127.322C319.611 128.555 320.197 129.201 324.835 130.904C329.476 132.606 335.465 134.368 337.579 134.603C339.693 134.838 340.044 135.249 338.575 136.129C337.108 137.01 332.748 138.081 330.899 140.9C329.049 143.718 325.086 147.726 329.049 150.897C333.013 154.067 342.305 157.327 345.299 156.974C348.293 156.622 348.293 155.213 347.017 153.318C345.74 151.425 342.657 150.193 343.581 148.739C344.506 147.286 353.27 145.568 356.088 140.812C358.908 136.056 357.717 131.961 357.366 130.375C357.014 128.79 360.418 127.381 360.537 125.208C360.655 123.035 358.189 117.398 357.19 116.517C356.191 115.637 357.6 110.823 357.6 107.711C357.6 104.599 359.89 97.2594 358.48 90.1546C357.071 83.0492 355.517 78.6756 352.786 74.3594Z" fill="#2F2E41"/>
<path d="M308.339 54.8955C308.339 54.8955 307.106 53.6619 305.256 54.1467C303.407 54.6315 303.804 56.9213 303.804 56.9213C303.804 56.9213 305.433 58.5507 307.062 57.5817C308.691 56.6128 308.339 54.8955 308.339 54.8955Z" fill="white"/>
<path d="M304.684 56.0408C304.684 56.8433 305.411 57.4934 305.411 57.4934C305.411 57.4934 306.137 56.8433 306.137 56.0408C306.137 55.2383 305.411 54.587 305.411 54.587C305.411 54.587 304.684 55.2383 304.684 56.0408Z" fill="#2F2E41"/>
<path d="M294.152 54.4222C294.152 54.4222 295.22 53.3545 296.822 53.7737C298.423 54.1928 298.08 56.1763 298.08 56.1763C298.08 56.1763 296.669 57.5872 295.258 56.7483C293.846 55.909 294.152 54.4222 294.152 54.4222Z" fill="white"/>
<path d="M296.392 55.2815C296.392 55.9756 295.764 56.54 295.764 56.54C295.764 56.54 295.134 55.9756 295.134 55.2815C295.134 54.5864 295.764 54.0225 295.764 54.0225C295.764 54.0225 296.392 54.5864 296.392 55.2815Z" fill="#2F2E41"/>
</svg>
